<?xml version="1.0" encoding="UTF-8" standalone="no"?>
<svg
   height="512"
   viewportHeight="512"
   viewportWidth="512"
   width="512"
   version="1.1"
   id="svg4"
   xmlns="http://www.w3.org/2000/svg"
   xmlns:svg="http://www.w3.org/2000/svg">
  <defs
     id="defs4" />
  <g
     id="g4"
     transform="matrix(1.7733442,0,0,1.7733442,-11.838996,113.04635)">
    <path
       fillAlpha="0.999686"
       fill="#0e0600"
       d="m 23.991105,28.790034 c 0.63,19.92 0.63,19.92 0.63,19.92 l 15.61,8.82 2.31,15.24 19.22,8.45 c 0,0 6.01,8.49 6.64,11.54 0.63,3.05 14.67,30.009996 14.67,30.009996 l 2.63,19.15 c 0,0 8.79,7.93 14.859995,11.57 6.07,3.65 19.24,24.32 19.88,27.47 0.63,3.14 6.68,6.33 9.42,6.33 2.74,0 -4.01,-16.43 -4.01,-16.43 l -18.2,-20.59 -7.839995,-16.42 -6.73,-6.47 -1.26,-13.97 -21.46,-38.629996 -18.5,-3.71 -0.63,-16.58 -11.66,-7.27 -8.14,-13.25 z"
       strokeLineCap="round"
       strokeLineJoin="round"
       stroke-width="20.4641"
       id="path1" />
    <path
       fillAlpha="0.999686"
       fill="#0e0600"
       d="m 48.741105,-28.969966 2.31,23.0999998 25.46,15.57 -6.48,14.0300002 10.21,6.43 c 0,0 9.88,17.43 12.44,18.47 2.56,1.04 25.239995,10.85 25.239995,10.85 l 5.96,17.7 1.64,14.1 c 0,0 -1.79,13.769996 1.06,14.869996 2.85,1.1 24.36,21.11 24.36,21.11 0,0 5.14,24.07 7.87,28.43 2.73,4.35 3.62,21.64 3.62,21.64 0,0 8.28,12.29 12.63,12.83 4.35,0.54 18.07,-5.37 18.07,-5.37 l -15.33,-3.7 -10.52,-12.07 c 0,0 2.23,-12.8 1.68,-19.05 -0.56,-6.25 -13.15,-37.5 -13.15,-37.5 l -13.89,-6.46 c 0,0 -7.34,-32.599996 -7.34,-37.169996 0,-4.57 -1.86,-26.47 -1.86,-26.47 l -22.77,4.34 -5.7,-9.53 c 0,0 -1.18,10.64 -9.099995,-2.05 -7.92,-12.69 -9.57,-8.87 -9.57,-15.49 0,-6.62 -0.19,-19.50000018 -0.19,-19.50000018 l -25.09,-13.45999982 z"
       strokeLineCap="round"
       strokeLineJoin="round"
       stroke-width="17.6587"
       id="path2" />
    <path
       fillAlpha="0.999686"
       fill="#0e0600"
       d="m 83.961105,-26.429966 26.449995,24.5099998 17.09,24.2000002 20.48,12.36 c 0,0 15.14,35.95 15.14,39.78 0,3.83 24.27,26.219996 24.27,26.219996 0,0 -1.82,25.48 -1.82,27.81 0,2.33 16.43,32.2 16.43,32.2 l 17.05,18.55 13.91,-5.73 -13.3,-19.63 -15.61,-15.8 -9.33,-19.58 9.52,-18.08 c 0,0 -1.79,-10.059996 -7.83,-12.909996 -6.03,-2.84 -29.32,-26.16 -29.32,-26.16 l 2.69,-26.42 -5.6,-10.68 -22.72,-4.32 -14.66,-19.95000018 -13.79,-23.18999982 z"
       strokeLineCap="round"
       strokeLineJoin="round"
       stroke-width="17.6587"
       id="path3" />
    <path
       fillAlpha="0.999686"
       fill="#0e0600"
       d="m 135.0911,-20.349966 62.99,35.22 7.51,12.79 c 0,0 7.3,7.84 14.43,17.74 7.13,9.9 20.39,39.47 20.39,39.47 l -0.43,22.819996 c 0,0 7.44,21.86 9.4,22.2 1.97,0.34 28.7,15.14 28.7,15.14 l -11.57,-19.04 -11.69,-8.64 -3.23,-31.969996 -7.35,-22.3 -14.95,-20.1 -22.57,-29.59 -12.26,-16.8100002 -36.83,-11.7199998 -9.37,-9.21 z"
       strokeLineCap="round"
       strokeLineJoin="round"
       stroke-width="14.4003"
       id="path4" />
  </g>
</svg>
